<svg width="16" height="25" viewBox="0 0 16 25" fill="none" xmlns="http://www.w3.org/2000/svg">
<circle cx="7.57576" cy="7.57576" r="6.07576" stroke="white" stroke-width="3"/>
<path d="M7.57575 25L2 12.5L13 12.5L7.57575 25Z" fill="white"/>
<path d="M3.02357 13C3.02401 13.0054 3.04137 13.1053 3.02258 13.1137C3.01822 13.1156 3.007 13.1204 3 13.1257" stroke="white" stroke-width="0.5" stroke-linecap="round"/>
<path d="M2.27647 12.7742C2.23293 12.7337 2.18911 12.6935 2.14527 12.6534C2.13774 12.6396 2.12983 12.626 2.1203 12.613C2.10069 12.5862 2.08193 12.5587 2.06137 12.5326C2.05013 12.5183 2.02769 12.4998 2.02022 12.4825C2.00303 12.4428 2.09363 12.5309 2.12108 12.5644C2.14312 12.5913 2.16752 12.616 2.1892 12.6432C2.21206 12.6719 2.23947 12.7014 2.25685 12.734C2.26394 12.7472 2.27021 12.7607 2.27647 12.7742C2.29206 12.7887 2.3076 12.8032 2.32311 12.8178C2.33586 12.8298 2.34598 12.8404 2.36114 12.8484C2.37379 12.8551 2.38554 12.862 2.39497 12.873C2.41741 12.8991 2.42673 12.934 2.44828 12.9603C2.4546 12.968 2.48751 13.0346 2.45888 13.0289C2.4343 13.024 2.41232 12.9885 2.39622 12.9717C2.35754 12.9314 2.3357 12.8804 2.30674 12.8333C2.29497 12.8141 2.28574 12.7942 2.27647 12.7742Z" fill="white"/>
<path d="M2.1284 12.6379C2.19356 12.6976 2.25874 12.7573 2.32311 12.8178C2.33586 12.8298 2.34598 12.8404 2.36114 12.8484C2.37379 12.8551 2.38554 12.862 2.39497 12.873C2.41741 12.8991 2.42673 12.934 2.44828 12.9603C2.4546 12.968 2.48751 13.0346 2.45888 13.0289C2.4343 13.024 2.41232 12.9885 2.39622 12.9717C2.35754 12.9314 2.3357 12.8804 2.30674 12.8333C2.28704 12.8012 2.27444 12.7669 2.25685 12.734C2.23947 12.7014 2.21206 12.6719 2.1892 12.6432C2.16752 12.616 2.14312 12.5913 2.12108 12.5644C2.09363 12.5309 2.00303 12.4428 2.02022 12.4825C2.02769 12.4998 2.05013 12.5183 2.06137 12.5326C2.08193 12.5587 2.10069 12.5862 2.1203 12.613C2.1395 12.6393 2.15213 12.6677 2.16831 12.6956C2.1819 12.719 2.20279 12.7273 2.221 12.7455C2.24659 12.7711 2.25621 12.8055 2.27416 12.8358C2.28495 12.854 2.30592 12.8641 2.31921 12.8805C2.33274 12.8972 2.34277 12.9169 2.35413 12.9351C2.37169 12.9632 2.39363 12.988 2.4118 13.0158C2.43168 13.0462 2.44995 13.0636 2.47478 13.0884C2.48447 13.0981 2.48339 13.1185 2.48694 13.1312C2.48913 13.139 2.47151 13.1215 2.47151 13.1215C2.43832 13.0948 2.40156 13.071 2.37174 13.0404C2.3476 13.0157 2.3434 12.985 2.32357 12.9591C2.30919 12.9402 2.28945 12.928 2.27618 12.9073C2.25954 12.8814 2.24893 12.8521 2.23098 12.8269C2.2032 12.7879 2.17061 12.7517 2.14196 12.7132C2.11433 12.6761 2.10414 12.6355 2.08694 12.5933C2.0833 12.5844 2.07311 12.5757 2.07509 12.5678" stroke="white" stroke-width="0.1" stroke-linecap="round"/>
<path d="M2.08887 12.6183C2.13439 12.7071 2.17258 12.7838 2.23634 12.8577C2.26505 12.891 2.26748 12.9396 2.29542 12.9736C2.32215 13.0061 2.3357 13.0466 2.3612 13.0797C2.38896 13.1158 2.41633 13.1498 2.43681 13.1907" stroke="white" stroke-width="0.1" stroke-linecap="round"/>
<path d="M2.18454 12.6464C2.22657 12.7579 2.2648 12.8688 2.34292 12.96C2.35641 12.9757 2.36516 12.9832 2.37254 13.0041C2.37762 13.0185 2.40754 13.0778 2.37909 13.0526C2.34077 13.0186 2.30235 12.9827 2.26576 12.9469C2.24977 12.9313 2.24934 12.9014 2.24285 12.8808C2.23185 12.846 2.21039 12.8164 2.19296 12.7848C2.16281 12.73 2.14264 12.6896 2.13965 12.6267" stroke="white" stroke-width="0.1" stroke-linecap="round"/>
<path d="M2.21635 12.8557C2.17112 12.7964 2.13905 12.723 2.10344 12.6573C2.11381 12.7186 2.13548 12.7706 2.17286 12.8239C2.19787 12.8596 2.21414 12.8987 2.23709 12.9354C2.26697 12.9832 2.29252 13.0324 2.3367 13.0691C2.34277 13.0742 2.37264 13.0998 2.37177 13.0981C2.35286 13.0603 2.32508 13.0132 2.29539 12.9831C2.27165 12.959 2.26059 12.9433 2.24893 12.9104C2.24125 12.8888 2.23017 12.8738 2.21635 12.8557Z" fill="white"/>
<path d="M2.09741 12.6464C2.1355 12.7147 2.16859 12.7931 2.21635 12.8557C2.23017 12.8738 2.24125 12.8888 2.24893 12.9104C2.26059 12.9433 2.27165 12.959 2.29539 12.9831C2.32508 13.0132 2.35286 13.0603 2.37177 13.0981C2.37264 13.0998 2.34277 13.0742 2.3367 13.0691C2.29252 13.0324 2.26697 12.9832 2.23709 12.9354C2.21414 12.8987 2.19787 12.8596 2.17286 12.8239C2.13105 12.7643 2.1089 12.7063 2.10022 12.6351" stroke="white" stroke-width="0.1" stroke-linecap="round"/>
<path d="M12.4648 13.3477C12.5479 13.2383 12.6319 13.1295 12.7144 13.02C12.7297 12.9997 12.7397 12.9775 12.7512 12.955C12.7669 12.9241 12.7892 12.8982 12.8071 12.8687C12.8212 12.8453 12.8596 12.7731 12.8487 12.7982C12.8412 12.8157 12.8289 12.831 12.8204 12.8482C12.8013 12.8872 12.7862 12.9272 12.7645 12.9651C12.7491 12.992 12.734 13.0186 12.7257 13.0486C12.7192 13.0721 12.7145 13.093 12.7014 13.1138C12.6747 13.1561 12.6538 13.1998 12.6304 13.2437C12.6096 13.2829 12.5786 13.3164 12.5564 13.3549C12.542 13.3801 12.5252 13.4032 12.5089 13.4271C12.4907 13.4537 12.4777 13.483 12.457 13.5078" stroke="black" stroke-width="0.1" stroke-linecap="round"/>
<path d="M12.8158 12.8524C12.8629 12.7716 12.909 12.6902 12.9562 12.6097C12.973 12.581 12.9884 12.5506 13.0091 12.5245C13.0306 12.4972 13.0568 12.4741 13.078 12.4466C13.0858 12.4364 13.0889 12.4072 13.0994 12.4145C13.1003 12.4151 13.1001 12.4181 13.0994 12.4222C13.0975 12.4339 13.0912 12.4552 13.0907 12.4575C13.0838 12.4905 13.0744 12.5216 13.063 12.5514C13.0715 12.5434 13.0778 12.5386 13.0667 12.554C13.063 12.5591 13.0594 12.5642 13.0557 12.5694C13.029 12.6335 12.993 12.6924 12.953 12.7536C12.8271 12.9459 12.6989 13.1365 12.5784 13.3323C12.5095 13.4444 12.4211 13.5434 12.3672 13.6643C12.3498 13.7033 12.32 13.7367 12.3045 13.7756C12.301 13.7842 12.3114 13.7459 12.3127 13.7422C12.3348 13.6784 12.376 13.6204 12.3998 13.5561C12.4041 13.5445 12.4085 13.5331 12.413 13.5217C12.4437 13.445 12.48 13.3728 12.5156 13.2977C12.4922 13.3375 12.4689 13.3773 12.4451 13.4168C12.3969 13.4966 12.3344 13.5694 12.2929 13.653C12.287 13.6651 12.2601 13.7593 12.2688 13.7025C12.2873 13.5811 12.3784 13.4836 12.4495 13.3896C12.4757 13.355 12.4994 13.3181 12.5235 13.2813C12.5412 13.2461 12.5615 13.2145 12.5836 13.1833C12.5983 13.1593 12.6132 13.1354 12.6284 13.1117C12.6387 13.0957 12.6492 13.0799 12.6599 13.0642C12.6613 13.062 12.6628 13.0597 12.6644 13.0575C12.6657 13.0556 12.6671 13.0537 12.6684 13.0518C12.7012 13.0044 12.7355 12.9587 12.7712 12.9139C12.7856 12.8931 12.8005 12.8725 12.8158 12.8524Z" fill="white"/>
<path d="M12.3802 13.5762C12.4925 13.3909 12.5998 13.2043 12.7145 13.0209C12.7988 12.8863 12.8758 12.7467 12.9562 12.6097C12.973 12.581 12.9884 12.5506 13.0091 12.5245C13.0306 12.4972 13.0568 12.4741 13.078 12.4466C13.0858 12.4364 13.0889 12.4072 13.0994 12.4145C13.1026 12.4167 13.0913 12.4544 13.0907 12.4575C13.0674 12.5694 13.015 12.6588 12.953 12.7536C12.8271 12.9459 12.6989 13.1365 12.5784 13.3323C12.5095 13.4444 12.4211 13.5434 12.3672 13.6643C12.3498 13.7033 12.32 13.7367 12.3045 13.7756C12.301 13.7842 12.3114 13.7459 12.3127 13.7422C12.3348 13.6784 12.376 13.6204 12.3998 13.5561C12.4335 13.4651 12.4759 13.3816 12.5173 13.294C12.5453 13.2349 12.5805 13.1863 12.6197 13.1344C12.6376 13.1105 12.6473 13.0819 12.6644 13.0575C12.6874 13.0245 12.7163 12.9966 12.7384 12.9627C12.7668 12.919 12.797 12.876 12.8293 12.835C12.8474 12.8119 12.8623 12.7889 12.8764 12.7632C12.8941 12.7309 12.919 12.7116 12.9445 12.6859C12.9819 12.648 13.0066 12.6039 13.0462 12.5675C13.053 12.5613 13.0859 12.5273 13.0667 12.554C12.9686 12.6902 12.8897 12.8373 12.7886 12.9721C12.746 13.029 12.6971 13.0737 12.6464 13.1225C12.5665 13.1995 12.5158 13.302 12.4495 13.3896C12.3784 13.4836 12.2873 13.5811 12.2688 13.7025C12.2601 13.7593 12.287 13.6651 12.2929 13.653C12.3344 13.5694 12.3969 13.4966 12.4451 13.4168C12.5064 13.3151 12.5641 13.2115 12.6284 13.1117C12.7112 12.9832 12.8053 12.8677 12.9068 12.7537C12.9251 12.7331 12.9444 12.7133 12.9622 12.6923C12.9842 12.6663 12.9962 12.6339 13.0157 12.6061C13.08 12.5145 13.1023 12.4015 13.1407 12.2973" stroke="white" stroke-width="0.1" stroke-linecap="round"/>
</svg>
