<svg width="16" height="25" viewBox="0 0 16 25" fill="none" xmlns="http://www.w3.org/2000/svg">
<circle cx="7.57576" cy="7.57576" r="7.57576" fill="black"/>
<path d="M7.57575 25L2 12.5L13 12.5L7.57575 25Z" fill="black"/>
<path d="M2.52357 12.5654C2.52401 12.5707 2.54137 12.6707 2.52258 12.6791C2.51822 12.681 2.507 12.6858 2.5 12.6911" stroke="black" stroke-width="0.5" stroke-linecap="round"/>
<path d="M2.12895 12.5898C2.1666 12.6362 2.20656 12.6789 2.24614 12.7231C2.25469 12.7326 2.26062 12.7447 2.27001 12.7535C2.28871 12.771 2.31536 12.7669 2.33023 12.792C2.34322 12.8139 2.35971 12.8306 2.37569 12.85C2.40404 12.8846 2.35989 12.8628 2.34553 12.8524C2.31394 12.8296 2.28589 12.7932 2.2712 12.7571C2.26883 12.7512 2.282 12.7624 2.28455 12.7638C2.3013 12.773 2.31866 12.7788 2.33207 12.7934C2.36161 12.8256 2.37799 12.8609 2.38079 12.9043C2.3814 12.9137 2.38728 12.9361 2.38166 12.9449C2.37673 12.9525 2.33404 12.9058 2.33055 12.901C2.29241 12.8489 2.26234 12.803 2.24321 12.7413C2.23683 12.7208 2.21807 12.6911 2.24169 12.7321C2.2749 12.7897 2.30601 12.8496 2.33012 12.9117C2.33446 12.9228 2.34353 12.9302 2.34813 12.9408C2.35158 12.9487 2.36831 12.9879 2.36104 12.9946C2.34594 13.0084 2.25131 12.8571 2.24548 12.8466C2.22625 12.8118 2.19146 12.7726 2.18733 12.7344C2.18499 12.7128 2.1783 12.6891 2.1691 12.6694C2.16829 12.6677 2.16061 12.652 2.16627 12.6636C2.18886 12.7102 2.21177 12.7566 2.23572 12.8025C2.25139 12.8325 2.2701 12.8597 2.28715 12.8887C2.29832 12.9077 2.31641 12.9246 2.326 12.9438C2.32999 12.9518 2.34866 13.0139 2.3299 13.0046C2.29653 12.9879 2.27349 12.9385 2.2572 12.9073C2.24073 12.8758 2.23194 12.8414 2.21684 12.8092C2.19728 12.7676 2.17863 12.7293 2.16313 12.6862C2.16186 12.6827 2.14818 12.6612 2.15532 12.6747C2.1809 12.7231 2.19934 12.7752 2.2214 12.8253C2.23444 12.8549 2.24399 12.8848 2.2559 12.9147C2.26198 12.93 2.2747 12.9388 2.28444 12.9516C2.2984 12.97 2.30958 12.9904 2.3247 13.0079C2.3266 13.0101 2.34709 13.0312 2.33902 13.0312C2.31711 13.0312 2.29347 12.9946 2.28259 12.98C2.24589 12.931 2.21645 12.8744 2.18982 12.8194C2.16961 12.7777 2.1564 12.7286 2.12775 12.6916C2.12 12.6816 2.13464 12.7039 2.13546 12.7051C2.1889 12.7837 2.2281 12.8718 2.27728 12.9531C2.28752 12.9701 2.29598 12.997 2.31319 13.0082C2.31394 13.0087 2.32717 13.0164 2.32231 13.0151C2.26227 12.9994 2.23354 12.9089 2.20664 12.86C2.18841 12.8269 2.17164 12.7933 2.15391 12.76C2.13619 12.7267 2.11228 12.6964 2.09976 12.6604C2.09529 12.6475 2.09162 12.6347 2.08804 12.6216C2.08624 12.615 2.08554 12.6139 2.08902 12.6224C2.1007 12.6508 2.11641 12.6774 2.1309 12.7044C2.1501 12.7403 2.16963 12.7744 2.18125 12.8134C2.19099 12.846 2.21997 12.8565 2.24201 12.8792C2.27893 12.9172 2.316 12.9554 2.34227 13.0015C2.34816 13.0119 2.36383 13.0269 2.37298 13.0349C2.38362 13.0442 2.37706 13.0335 2.37504 13.0254" stroke="black" stroke-width="0.1" stroke-linecap="round"/>
<path d="M2.12828 12.6379C2.19344 12.6976 2.25862 12.7573 2.32298 12.8178C2.33574 12.8298 2.34586 12.8404 2.36102 12.8484C2.37367 12.8551 2.38542 12.862 2.39485 12.873C2.41729 12.8991 2.42661 12.934 2.44816 12.9603C2.45448 12.968 2.48739 13.0346 2.45876 13.0289C2.43418 13.024 2.41219 12.9885 2.39609 12.9717C2.35742 12.9314 2.33558 12.8804 2.30662 12.8333C2.28691 12.8012 2.27432 12.7669 2.25673 12.734C2.23935 12.7014 2.21194 12.6719 2.18908 12.6432C2.1674 12.616 2.143 12.5913 2.12095 12.5644C2.09351 12.5309 2.00291 12.4428 2.0201 12.4825C2.02757 12.4998 2.05 12.5183 2.06125 12.5326C2.08181 12.5587 2.10057 12.5862 2.12017 12.613C2.13937 12.6393 2.152 12.6677 2.16819 12.6956C2.18178 12.719 2.20266 12.7273 2.22088 12.7455C2.24646 12.7711 2.25609 12.8055 2.27403 12.8358C2.28483 12.854 2.3058 12.8641 2.31909 12.8805C2.33262 12.8972 2.34265 12.9169 2.354 12.9351C2.37157 12.9632 2.3935 12.988 2.41168 13.0158C2.43156 13.0462 2.44982 13.0636 2.47466 13.0884C2.48435 13.0981 2.48327 13.1185 2.48682 13.1312C2.48901 13.139 2.47236 13.1223 2.47139 13.1215C2.43819 13.0948 2.40143 13.071 2.37162 13.0404C2.34748 13.0157 2.34328 12.985 2.32345 12.9591C2.30906 12.9402 2.28933 12.928 2.27606 12.9073C2.25942 12.8814 2.2488 12.8521 2.23085 12.8269C2.20308 12.7879 2.17049 12.7517 2.14184 12.7132C2.1142 12.6761 2.10401 12.6355 2.08681 12.5933C2.08318 12.5844 2.07299 12.5757 2.07497 12.5678" stroke="black" stroke-width="0.1" stroke-linecap="round"/>
<path d="M2.08899 12.6183C2.13452 12.7071 2.1727 12.7838 2.23646 12.8577C2.26517 12.891 2.2676 12.9396 2.29554 12.9736C2.32227 13.0061 2.33582 13.0466 2.36132 13.0797C2.38908 13.1158 2.41645 13.1498 2.43693 13.1907" stroke="black" stroke-width="0.1" stroke-linecap="round"/>
<path d="M2.18442 12.6464C2.22645 12.7579 2.26468 12.8688 2.3428 12.96C2.35629 12.9757 2.36504 12.9832 2.37242 13.0041C2.3775 13.0185 2.40741 13.0778 2.37897 13.0526C2.34065 13.0186 2.30223 12.9827 2.26564 12.9469C2.24965 12.9313 2.24922 12.9014 2.24272 12.8808C2.23173 12.846 2.21027 12.8164 2.19284 12.7848C2.16269 12.73 2.14252 12.6896 2.13953 12.6267" stroke="black" stroke-width="0.1" stroke-linecap="round"/>
<path d="M2.09741 12.6464C2.1355 12.7147 2.16859 12.7931 2.21635 12.8557C2.23017 12.8738 2.24125 12.8888 2.24893 12.9104C2.26059 12.9433 2.27165 12.959 2.29539 12.9831C2.32508 13.0132 2.35286 13.0603 2.37177 13.0981C2.37264 13.0998 2.34277 13.0742 2.3367 13.0691C2.29252 13.0324 2.26697 12.9832 2.23709 12.9354C2.21414 12.8987 2.19787 12.8596 2.17286 12.8239C2.13105 12.7643 2.1089 12.7063 2.10022 12.6351" stroke="black" stroke-width="0.1" stroke-linecap="round"/>
<path d="M12.4648 13.3477C12.5479 13.2383 12.6319 13.1295 12.7144 13.02C12.7297 12.9997 12.7397 12.9775 12.7512 12.955C12.7669 12.9241 12.7892 12.8982 12.8071 12.8687C12.8212 12.8453 12.8596 12.7731 12.8487 12.7982C12.8412 12.8157 12.8289 12.831 12.8204 12.8482C12.8013 12.8872 12.7862 12.9272 12.7645 12.9651C12.7491 12.992 12.734 13.0186 12.7257 13.0486C12.7192 13.0721 12.7145 13.093 12.7014 13.1138C12.6747 13.1561 12.6538 13.1998 12.6304 13.2437C12.6096 13.2829 12.5786 13.3164 12.5564 13.3549C12.542 13.3801 12.5252 13.4032 12.5089 13.4271C12.4907 13.4537 12.4777 13.483 12.457 13.5078" stroke="black" stroke-width="0.1" stroke-linecap="round"/>
<path d="M12.3802 13.5762C12.4925 13.3909 12.5998 13.2043 12.7145 13.0209C12.7988 12.8863 12.8758 12.7467 12.9562 12.6097C12.973 12.581 12.9884 12.5506 13.0091 12.5245C13.0306 12.4972 13.0568 12.4741 13.078 12.4466C13.0858 12.4364 13.0889 12.4072 13.0994 12.4145C13.1026 12.4167 13.0913 12.4544 13.0907 12.4575C13.0674 12.5694 13.015 12.6588 12.953 12.7536C12.8271 12.9459 12.6989 13.1365 12.5784 13.3323C12.5095 13.4444 12.4211 13.5434 12.3672 13.6643C12.3498 13.7033 12.32 13.7367 12.3045 13.7756C12.301 13.7842 12.3114 13.7459 12.3127 13.7422C12.3348 13.6784 12.376 13.6204 12.3998 13.5561C12.4335 13.4651 12.4759 13.3816 12.5173 13.294C12.5453 13.2349 12.5805 13.1863 12.6197 13.1344C12.6376 13.1105 12.6473 13.0819 12.6644 13.0575C12.6874 13.0245 12.7163 12.9966 12.7384 12.9627C12.7668 12.919 12.797 12.876 12.8293 12.835C12.8474 12.8119 12.8623 12.7889 12.8764 12.7632C12.8941 12.7309 12.919 12.7116 12.9445 12.6859C12.9819 12.648 13.0066 12.6039 13.0462 12.5675C13.053 12.5613 13.0859 12.5273 13.0667 12.554C12.9686 12.6902 12.8897 12.8373 12.7886 12.9721C12.746 13.029 12.6971 13.0737 12.6464 13.1225C12.5665 13.1995 12.5158 13.302 12.4495 13.3896C12.3784 13.4836 12.2873 13.5811 12.2688 13.7025C12.2601 13.7593 12.287 13.6651 12.2929 13.653C12.3344 13.5694 12.3969 13.4966 12.4451 13.4168C12.5064 13.3151 12.5641 13.2115 12.6284 13.1117C12.7112 12.9832 12.8053 12.8677 12.9068 12.7537C12.9251 12.7331 12.9444 12.7133 12.9622 12.6923C12.9842 12.6663 12.9962 12.6339 13.0157 12.6061C13.08 12.5145 13.1023 12.4015 13.1407 12.2973" stroke="black" stroke-width="0.1" stroke-linecap="round"/>
<path d="M10.5303 7.9697C10.5303 9.64329 9.17359 11 7.5 11C5.82641 11 4.4697 9.64329 4.4697 7.9697C4.4697 6.29611 5.82641 4.93939 7.5 4.93939C9.17359 4.93939 10.5303 6.29611 10.5303 7.9697Z" fill="white"/>
</svg>
